<svg id="Layer_1" data-name="Layer 1" xmlns="http://www.w3.org/2000/svg" viewBox="0 0 1301.4 1645.83"><defs><style>.cls-1{fill:#4f9fe8;}.cls-2{fill:#093c84;}</style></defs><title>icon</title><g id="_Group_" data-name="&lt;Group&gt;"><path class="cls-1" d="M1642.83,1050a11.77,11.77,0,0,1,7.32,13l-106,606.71a11.78,11.78,0,0,1-17.68,8L903.95,1302,354.63,970.44A11.78,11.78,0,0,1,349,958.65l55.57-377.73a11.75,11.75,0,0,1,15.91-9.25l399,156.11Z" transform="translate(-348.92 -177.18)"/><path class="cls-1" d="M1634.38,709.59c5.3,11.74-9.46,22.24-18.83,13.37L1437.72,554.4l-52-49.26L1061.17,197.52c-8.83-8.36-.73-23,11-19.93l360,93.08a11.74,11.74,0,0,1,7.77,6.57Z" transform="translate(-348.92 -177.18)"/><path class="cls-2" d="M1606.26,752.05a11.77,11.77,0,0,1-3.15,19.23L1383.37,873a11.77,11.77,0,0,1-16.64-11.86l30.88-306.62.09-.12Z" transform="translate(-348.92 -177.18)"/><path class="cls-2" d="M1482.18,1691.76a11.76,11.76,0,0,1-2.68,21.35l-360.87,108.26a11.78,11.78,0,0,1-11.72-2.94L745.55,1457.09a11.77,11.77,0,0,1,5.63-19.77l221.17-52.16.49-.8Z" transform="translate(-348.92 -177.18)"/><path class="cls-2" d="M1329.08,490.24a11.76,11.76,0,0,1-3.84,19.51L839.44,698a2.51,2.51,0,0,0-1.46,1.44,2.52,2.52,0,0,1-2.35,1.62,2.56,2.56,0,0,1-.92-.19L479.06,561.72A11.75,11.75,0,0,1,472.21,547l74.18-218.65a11.74,11.74,0,0,1,8.21-7.63L1017,202a11.74,11.74,0,0,1,11,2.85Z" transform="translate(-348.92 -177.18)"/><path class="cls-1" d="M1045.56,1802.9c8,8,1.22,21.56-10,20L430,1737.31a11.78,11.78,0,0,1-10.07-10.5l-57-577.05c-1.11-11,12.22-17.28,20-9.46l230.91,230.91Z" transform="translate(-348.92 -177.18)"/></g></svg>